<svg id="Layer_1" data-name="Layer 1" xmlns="http://www.w3.org/2000/svg" xmlns:xlink="http://www.w3.org/1999/xlink" viewBox="0 0 346.72 98.15"><defs><style>.cls-1{fill:url(#linear-gradient);}.cls-2{fill:url(#linear-gradient-2);}.cls-3{fill:url(#linear-gradient-3);}.cls-4{fill:url(#linear-gradient-4);}.cls-5{fill:url(#linear-gradient-5);}.cls-6{fill:url(#linear-gradient-6);}.cls-7{fill:url(#linear-gradient-7);}.cls-8{fill:url(#linear-gradient-8);}.cls-9{fill:url(#linear-gradient-9);}.cls-10{fill:url(#linear-gradient-10);}.cls-11{fill:url(#linear-gradient-11);}.cls-12{fill:url(#linear-gradient-12);}</style><linearGradient id="linear-gradient" x1="77.34" y1="84.83" x2="102.2" y2="84.83" gradientUnits="userSpaceOnUse"><stop offset="0" stop-color="#1bd1fe"/><stop offset="1" stop-color="#32376a"/></linearGradient><linearGradient id="linear-gradient-2" x1="83.73" y1="33.9" x2="98.85" y2="33.9" xlink:href="#linear-gradient"/><linearGradient id="linear-gradient-3" x1="89.17" y1="81.27" x2="149.3" y2="81.27" xlink:href="#linear-gradient"/><linearGradient id="linear-gradient-4" x1="22.36" y1="94.87" x2="82.58" y2="94.87" gradientUnits="userSpaceOnUse"><stop offset="0" stop-color="#333"/><stop offset="1" stop-color="#4c4c4c"/></linearGradient><linearGradient id="linear-gradient-5" x1="38.87" y1="89.08" x2="88.1" y2="89.08" xlink:href="#linear-gradient-4"/><linearGradient id="linear-gradient-6" x1="85.47" y1="112.47" x2="183.39" y2="112.47" xlink:href="#linear-gradient-4"/><linearGradient id="linear-gradient-7" x1="88.1" y1="115.44" x2="201.6" y2="115.44" xlink:href="#linear-gradient-4"/><linearGradient id="linear-gradient-8" x1="126.66" y1="51.42" x2="142.23" y2="51.42" gradientUnits="userSpaceOnUse"><stop offset="0" stop-color="#016901"/><stop offset="1" stop-color="#409640"/></linearGradient><linearGradient id="linear-gradient-9" x1="121.99" y1="91.16" x2="133.21" y2="91.16" xlink:href="#linear-gradient-8"/><linearGradient id="linear-gradient-10" x1="138.87" y1="77.09" x2="164.84" y2="77.09" xlink:href="#linear-gradient-8"/><linearGradient id="linear-gradient-11" x1="175.22" y1="80.81" x2="282.69" y2="80.81" xlink:href="#linear-gradient-8"/><linearGradient id="linear-gradient-12" x1="282.32" y1="81.21" x2="369.08" y2="81.21" xlink:href="#linear-gradient-8"/></defs><path class="cls-1" d="M86.79,122.51C103.5,94.77,101.51,68,77.34,47.15L89,47.57C107.78,69.61,106.07,95.48,86.79,122.51Z" transform="translate(-22.36 -31.99)"/><ellipse class="cls-2" cx="91.29" cy="33.9" rx="7.56" ry="10.02"/><path class="cls-3" d="M89.17,121.61c10.34-13.35,18.9-26.68,22.09-39.95,14.17-.39,28.62-20.52,38-40.73C143.81,68.63,119.24,100.8,89.17,121.61Z" transform="translate(-22.36 -31.99)"/><path class="cls-4" d="M82.07,127.45c4.26-34.72-18.34-64-59.71-65.16v7C59.24,72.31,80.46,91.53,82.07,127.45Z" transform="translate(-22.36 -31.99)"/><path class="cls-5" d="M84.15,127.45c10-31.89,2-60.27-35.91-76.73l-9.37,3.74C82.58,67.4,88.1,100.76,84.15,127.45Z" transform="translate(-22.36 -31.99)"/><path class="cls-6" d="M85.47,127.23c22.14-19.73,54.2-33.1,88.55-28.68l9.37,6.47C147.9,98.83,114.17,109.14,85.47,127.23Z" transform="translate(-22.36 -31.99)"/><path class="cls-7" d="M88.1,127.45c27.22-15.24,63.75-25.58,104.14-17.16l-7.83-7.83,5.44,1.2L201.6,115a165.69,165.69,0,0,0-96.17,5.72c27.11-6.88,53.38-9.45,78.55-6.39l15.24,14.13Z" transform="translate(-22.36 -31.99)"/><path class="cls-8" d="M126.66,70.13c1.58-13.25,3.49-27.15,5.45-36.91a1.51,1.51,0,0,1,2.67-.64,47.25,47.25,0,0,1,7.1,12.75,7.44,7.44,0,0,1-.29,5.27,66.25,66.25,0,0,1-13.84,20.05A.64.64,0,0,1,126.66,70.13Z" transform="translate(-22.36 -31.99)"/><path class="cls-9" d="M133.2,82l-1.7,15a2.7,2.7,0,0,1-1.9,2.28l-5.77,1.77A1.41,1.41,0,0,1,122,99.52l.75-5.88a3.25,3.25,0,0,1,.67-1.57L132,81.47A.69.69,0,0,1,133.2,82Z" transform="translate(-22.36 -31.99)"/><path class="cls-10" d="M148.1,93.66l-8.74-18.85a5.27,5.27,0,0,1,.1-4.63L145.19,59A1.6,1.6,0,0,1,148,59l16.59,33.25a2.11,2.11,0,0,1-1.8,3L152.19,96A4.19,4.19,0,0,1,148.1,93.66Z" transform="translate(-22.36 -31.99)"/><path class="cls-11" d="M175.22,96.85l30-62.94a1.57,1.57,0,0,1,3,.42l14.48,84.3c3.58,9.79,9,7.66,9,0l.85-74.21c-.08-6.78-5.5-8.15-12.77-7.66-.48-.86-.14-1.7.72-2.53,20.17,1,45.44,2,57.63-.3a1.41,1.41,0,0,1,1.67,1.52l-1.34,15.79c-.09,1.08-2.1,1.43-2,.35C277.43,42,265.78,39,248.62,42l-.38,32.81,24.06-.13,2.41-2.92A1.77,1.77,0,0,1,277.84,73l-1.18,18.1a1,1,0,0,1-2,.27l-2.48-7.24c-5.7-4.34-23.81-2.21-23.81-2.21l.22,34c.85,5,6.87,6.86,16.91,6.19,12.69-.14,14.5-5.46,15.92-11.62a.66.66,0,0,1,1.3.18l-.78,13.93a4.29,4.29,0,0,1-4.36,4l-72.38-1.37c-1.4-1.6,1.39-3.32,1.79-3.27L199,65.89l-17.19,35.23Z" transform="translate(-22.36 -31.99)"/><path class="cls-12" d="M369.07,107.93l-2.71,18c-107.74,31-117.1-120.85,2.39-89.36l-1,23c-.06,1.51-2.76,2-2.69.45,1.65-16.08-20.15-25-38.57-20.75a31.22,31.22,0,0,0-21.94,18.81c-25.94,54.78,51.83,86.52,61.38,48.64C366.39,105,369.34,106.1,369.07,107.93Z" transform="translate(-22.36 -31.99)"/></svg>